<svg version="1.2" xmlns="http://www.w3.org/2000/svg" viewBox="0 0 861 1315" width="861" height="1315"><style>.a{fill:#dcdcdc}</style><path class="a" d="m94.5 1211c0 0-180.8-318.1-42.5-328.5 138.2-10.5 262.1 71 142.5-108.2-119.6-179.3-223.7-229.3-111.2-265.5 112.4-36.2 247.8 15.4 139.9-98.5-107.8-113.9-32.3-185.8 115.1-191.5 147.4-5.6 292.4-52.6 286.7-156.4-5.7-103.8 105.1-70.3 182.7 41.8 77.6 112.1 92.1 248.7-118.3 296.3-210.4 47.5-323.3 17-227.2 163.7 96.2 146.7 158.1 169 1.6 254.3-156.4 85.4-168.8 138-26.3 290.5 142.5 152.4 129.1 223.4 5.7 202.3-123.3-21.1-432.1 16.9-348.7-100.3z"/></svg>