<svg version="1.2" xmlns="http://www.w3.org/2000/svg" viewBox="0 0 1692 1331" width="1692" height="1331"><style>.a{fill:#dcdcdc}</style><path class="a" d="m1562 18c128.6 8.5 191.8 139.5 44 210-147.8 70.5-307.4 130.6-197 310 110.4 179.4 176.9 384.2-99 351-275.9-33.2-177.1 59.7-436 161-258.9 101.3 93.2 159.4-468 259-561.2 99.6-376-177-376-177 0 0 161.7 37.7 153-139-8.7-176.7 326.9-73.1 543-80 216.1-6.9 223.6-99.1 142-212-81.6-112.9 110.3-212 336-327 225.7-115 66-278 66-278-44.2-141.4 163.4-86.5 292-78z"/></svg>